<mxfile host="app.diagrams.net" agent="Mozilla/5.0 (Windows NT 10.0; Win64; x64; rv:130.0) Gecko/20100101 Firefox/130.0" version="24.7.8">
  <diagram name="Page-1" id="PStFc8_A18yKIWVH-OUM">
    <mxGraphModel dx="875" dy="481" grid="1" gridSize="10" guides="1" tooltips="1" connect="1" arrows="1" fold="1" page="1" pageScale="1" pageWidth="850" pageHeight="1100" math="0" shadow="0">
      <root>
        <mxCell id="0" />
        <mxCell id="1" parent="0" />
        <mxCell id="h6NOjBixEb_fyDKGMwi7-15" value="Tandarts platform" style="swimlane;whiteSpace=wrap;html=1;" vertex="1" parent="1">
          <mxGeometry x="130" y="40" width="570" height="400" as="geometry" />
        </mxCell>
        <mxCell id="h6NOjBixEb_fyDKGMwi7-35" style="edgeStyle=orthogonalEdgeStyle;rounded=0;orthogonalLoop=1;jettySize=auto;html=1;exitX=1;exitY=0.5;exitDx=0;exitDy=0;" edge="1" parent="h6NOjBixEb_fyDKGMwi7-15" source="h6NOjBixEb_fyDKGMwi7-2" target="h6NOjBixEb_fyDKGMwi7-20">
          <mxGeometry relative="1" as="geometry" />
        </mxCell>
        <mxCell id="h6NOjBixEb_fyDKGMwi7-46" style="edgeStyle=orthogonalEdgeStyle;rounded=0;orthogonalLoop=1;jettySize=auto;html=1;exitX=1;exitY=0;exitDx=0;exitDy=0;entryX=0;entryY=1;entryDx=0;entryDy=0;" edge="1" parent="h6NOjBixEb_fyDKGMwi7-15" source="h6NOjBixEb_fyDKGMwi7-2" target="h6NOjBixEb_fyDKGMwi7-5">
          <mxGeometry relative="1" as="geometry" />
        </mxCell>
        <mxCell id="h6NOjBixEb_fyDKGMwi7-2" value="&lt;div&gt;Inlog/uitlog&lt;/div&gt;" style="ellipse;whiteSpace=wrap;html=1;" vertex="1" parent="h6NOjBixEb_fyDKGMwi7-15">
          <mxGeometry x="140" y="210" width="80" height="40" as="geometry" />
        </mxCell>
        <mxCell id="h6NOjBixEb_fyDKGMwi7-4" value="Registreren" style="ellipse;whiteSpace=wrap;html=1;" vertex="1" parent="h6NOjBixEb_fyDKGMwi7-15">
          <mxGeometry x="135" y="130" width="80" height="40" as="geometry" />
        </mxCell>
        <mxCell id="h6NOjBixEb_fyDKGMwi7-5" value="&lt;div&gt;profielbeheren&lt;/div&gt;" style="ellipse;whiteSpace=wrap;html=1;" vertex="1" parent="h6NOjBixEb_fyDKGMwi7-15">
          <mxGeometry x="215" y="160" width="80" height="40" as="geometry" />
        </mxCell>
        <mxCell id="h6NOjBixEb_fyDKGMwi7-37" style="edgeStyle=orthogonalEdgeStyle;rounded=0;orthogonalLoop=1;jettySize=auto;html=1;exitX=1;exitY=0.5;exitDx=0;exitDy=0;entryX=0;entryY=0.5;entryDx=0;entryDy=0;" edge="1" parent="h6NOjBixEb_fyDKGMwi7-15" source="h6NOjBixEb_fyDKGMwi7-7" target="h6NOjBixEb_fyDKGMwi7-14">
          <mxGeometry relative="1" as="geometry" />
        </mxCell>
        <mxCell id="h6NOjBixEb_fyDKGMwi7-40" style="edgeStyle=orthogonalEdgeStyle;rounded=0;orthogonalLoop=1;jettySize=auto;html=1;exitX=1;exitY=1;exitDx=0;exitDy=0;" edge="1" parent="h6NOjBixEb_fyDKGMwi7-15" source="h6NOjBixEb_fyDKGMwi7-7" target="h6NOjBixEb_fyDKGMwi7-21">
          <mxGeometry relative="1" as="geometry" />
        </mxCell>
        <mxCell id="h6NOjBixEb_fyDKGMwi7-7" value="&lt;div&gt;afspraak maken/wijzigen/annuleren&lt;/div&gt;" style="ellipse;whiteSpace=wrap;html=1;" vertex="1" parent="h6NOjBixEb_fyDKGMwi7-15">
          <mxGeometry x="150" y="50" width="110" height="70" as="geometry" />
        </mxCell>
        <mxCell id="h6NOjBixEb_fyDKGMwi7-43" style="edgeStyle=orthogonalEdgeStyle;rounded=0;orthogonalLoop=1;jettySize=auto;html=1;exitX=1;exitY=0.5;exitDx=0;exitDy=0;" edge="1" parent="h6NOjBixEb_fyDKGMwi7-15" source="h6NOjBixEb_fyDKGMwi7-8" target="h6NOjBixEb_fyDKGMwi7-12">
          <mxGeometry relative="1" as="geometry" />
        </mxCell>
        <mxCell id="h6NOjBixEb_fyDKGMwi7-8" value="afspraken bekijken en beheren" style="ellipse;whiteSpace=wrap;html=1;" vertex="1" parent="h6NOjBixEb_fyDKGMwi7-15">
          <mxGeometry x="300" y="290" width="90" height="50" as="geometry" />
        </mxCell>
        <mxCell id="h6NOjBixEb_fyDKGMwi7-12" value="&lt;div&gt;geregistreeerde patienten&lt;/div&gt;&lt;div&gt;bekijken&lt;br&gt;&lt;/div&gt;" style="ellipse;whiteSpace=wrap;html=1;" vertex="1" parent="h6NOjBixEb_fyDKGMwi7-15">
          <mxGeometry x="430" y="280" width="110" height="70" as="geometry" />
        </mxCell>
        <mxCell id="h6NOjBixEb_fyDKGMwi7-38" style="edgeStyle=orthogonalEdgeStyle;rounded=0;orthogonalLoop=1;jettySize=auto;html=1;exitX=1;exitY=0.5;exitDx=0;exitDy=0;entryX=0;entryY=0.5;entryDx=0;entryDy=0;" edge="1" parent="h6NOjBixEb_fyDKGMwi7-15" source="h6NOjBixEb_fyDKGMwi7-14" target="h6NOjBixEb_fyDKGMwi7-19">
          <mxGeometry relative="1" as="geometry" />
        </mxCell>
        <mxCell id="h6NOjBixEb_fyDKGMwi7-14" value="&lt;div&gt;Tandartsprofielen&lt;/div&gt;&lt;div&gt;bekijken&lt;br&gt;&lt;/div&gt;" style="ellipse;whiteSpace=wrap;html=1;" vertex="1" parent="h6NOjBixEb_fyDKGMwi7-15">
          <mxGeometry x="300" y="30" width="100" height="60" as="geometry" />
        </mxCell>
        <mxCell id="h6NOjBixEb_fyDKGMwi7-41" style="edgeStyle=orthogonalEdgeStyle;rounded=0;orthogonalLoop=1;jettySize=auto;html=1;exitX=0.5;exitY=1;exitDx=0;exitDy=0;entryX=0.5;entryY=0;entryDx=0;entryDy=0;" edge="1" parent="h6NOjBixEb_fyDKGMwi7-15" source="h6NOjBixEb_fyDKGMwi7-16" target="h6NOjBixEb_fyDKGMwi7-18">
          <mxGeometry relative="1" as="geometry" />
        </mxCell>
        <mxCell id="h6NOjBixEb_fyDKGMwi7-16" value="Behandelings geschiedenis bekijken" style="ellipse;whiteSpace=wrap;html=1;" vertex="1" parent="h6NOjBixEb_fyDKGMwi7-15">
          <mxGeometry x="440" y="110" width="100" height="60" as="geometry" />
        </mxCell>
        <mxCell id="h6NOjBixEb_fyDKGMwi7-18" value="&lt;div&gt;Verzekerings informatie&lt;/div&gt;&lt;div&gt;bekijken&lt;br&gt;&lt;/div&gt;" style="ellipse;whiteSpace=wrap;html=1;" vertex="1" parent="h6NOjBixEb_fyDKGMwi7-15">
          <mxGeometry x="440" y="190" width="100" height="60" as="geometry" />
        </mxCell>
        <mxCell id="h6NOjBixEb_fyDKGMwi7-39" style="edgeStyle=orthogonalEdgeStyle;rounded=0;orthogonalLoop=1;jettySize=auto;html=1;exitX=0.5;exitY=1;exitDx=0;exitDy=0;entryX=0.5;entryY=0;entryDx=0;entryDy=0;" edge="1" parent="h6NOjBixEb_fyDKGMwi7-15" source="h6NOjBixEb_fyDKGMwi7-19" target="h6NOjBixEb_fyDKGMwi7-16">
          <mxGeometry relative="1" as="geometry" />
        </mxCell>
        <mxCell id="h6NOjBixEb_fyDKGMwi7-19" value="&lt;div&gt;Educatief&amp;nbsp; Materiaal bekijken&lt;br&gt;&lt;/div&gt;" style="ellipse;whiteSpace=wrap;html=1;" vertex="1" parent="h6NOjBixEb_fyDKGMwi7-15">
          <mxGeometry x="440" y="30" width="100" height="60" as="geometry" />
        </mxCell>
        <mxCell id="h6NOjBixEb_fyDKGMwi7-20" value="&lt;div&gt;Communicatie&amp;nbsp;&lt;/div&gt;&lt;div&gt;platform&lt;/div&gt;" style="ellipse;whiteSpace=wrap;html=1;" vertex="1" parent="h6NOjBixEb_fyDKGMwi7-15">
          <mxGeometry x="295" y="190" width="110" height="60" as="geometry" />
        </mxCell>
        <mxCell id="h6NOjBixEb_fyDKGMwi7-21" value="&lt;div&gt;Feedback&lt;/div&gt;&lt;div&gt;systeem&lt;/div&gt;" style="ellipse;whiteSpace=wrap;html=1;" vertex="1" parent="h6NOjBixEb_fyDKGMwi7-15">
          <mxGeometry x="305" y="110" width="100" height="60" as="geometry" />
        </mxCell>
        <mxCell id="h6NOjBixEb_fyDKGMwi7-29" style="edgeStyle=orthogonalEdgeStyle;rounded=0;orthogonalLoop=1;jettySize=auto;html=1;exitX=1;exitY=0.3333333333333333;exitDx=0;exitDy=0;exitPerimeter=0;entryX=0;entryY=0.5;entryDx=0;entryDy=0;" edge="1" parent="h6NOjBixEb_fyDKGMwi7-15" source="h6NOjBixEb_fyDKGMwi7-23" target="h6NOjBixEb_fyDKGMwi7-4">
          <mxGeometry relative="1" as="geometry" />
        </mxCell>
        <mxCell id="h6NOjBixEb_fyDKGMwi7-30" style="edgeStyle=orthogonalEdgeStyle;rounded=0;orthogonalLoop=1;jettySize=auto;html=1;exitX=1;exitY=1;exitDx=0;exitDy=0;exitPerimeter=0;entryX=0;entryY=0.5;entryDx=0;entryDy=0;" edge="1" parent="h6NOjBixEb_fyDKGMwi7-15" source="h6NOjBixEb_fyDKGMwi7-23" target="h6NOjBixEb_fyDKGMwi7-2">
          <mxGeometry relative="1" as="geometry" />
        </mxCell>
        <mxCell id="h6NOjBixEb_fyDKGMwi7-36" style="edgeStyle=orthogonalEdgeStyle;rounded=0;orthogonalLoop=1;jettySize=auto;html=1;exitX=0.75;exitY=0.1;exitDx=0;exitDy=0;exitPerimeter=0;" edge="1" parent="h6NOjBixEb_fyDKGMwi7-15" source="h6NOjBixEb_fyDKGMwi7-23" target="h6NOjBixEb_fyDKGMwi7-7">
          <mxGeometry relative="1" as="geometry" />
        </mxCell>
        <mxCell id="h6NOjBixEb_fyDKGMwi7-23" value="Patient" style="shape=umlActor;verticalLabelPosition=bottom;verticalAlign=top;html=1;outlineConnect=0;" vertex="1" parent="h6NOjBixEb_fyDKGMwi7-15">
          <mxGeometry x="50" y="80" width="30" height="70" as="geometry" />
        </mxCell>
        <mxCell id="h6NOjBixEb_fyDKGMwi7-42" style="edgeStyle=orthogonalEdgeStyle;rounded=0;orthogonalLoop=1;jettySize=auto;html=1;exitX=1;exitY=0.3333333333333333;exitDx=0;exitDy=0;exitPerimeter=0;entryX=0;entryY=0.5;entryDx=0;entryDy=0;" edge="1" parent="h6NOjBixEb_fyDKGMwi7-15" source="h6NOjBixEb_fyDKGMwi7-24" target="h6NOjBixEb_fyDKGMwi7-8">
          <mxGeometry relative="1" as="geometry" />
        </mxCell>
        <mxCell id="h6NOjBixEb_fyDKGMwi7-48" style="edgeStyle=orthogonalEdgeStyle;rounded=0;orthogonalLoop=1;jettySize=auto;html=1;exitX=0.75;exitY=0.1;exitDx=0;exitDy=0;exitPerimeter=0;entryX=0;entryY=1;entryDx=0;entryDy=0;" edge="1" parent="h6NOjBixEb_fyDKGMwi7-15" source="h6NOjBixEb_fyDKGMwi7-24" target="h6NOjBixEb_fyDKGMwi7-2">
          <mxGeometry relative="1" as="geometry" />
        </mxCell>
        <mxCell id="h6NOjBixEb_fyDKGMwi7-24" value="&lt;div&gt;Tandarts&lt;/div&gt;" style="shape=umlActor;verticalLabelPosition=bottom;verticalAlign=top;html=1;outlineConnect=0;" vertex="1" parent="h6NOjBixEb_fyDKGMwi7-15">
          <mxGeometry x="50" y="240" width="30" height="60" as="geometry" />
        </mxCell>
        <mxCell id="h6NOjBixEb_fyDKGMwi7-51" style="edgeStyle=orthogonalEdgeStyle;rounded=0;orthogonalLoop=1;jettySize=auto;html=1;exitX=1;exitY=0.3333333333333333;exitDx=0;exitDy=0;exitPerimeter=0;entryX=0;entryY=0;entryDx=0;entryDy=0;" edge="1" parent="h6NOjBixEb_fyDKGMwi7-15" source="h6NOjBixEb_fyDKGMwi7-49" target="h6NOjBixEb_fyDKGMwi7-50">
          <mxGeometry relative="1" as="geometry" />
        </mxCell>
        <mxCell id="h6NOjBixEb_fyDKGMwi7-49" value="&lt;div&gt;Admin&lt;/div&gt;" style="shape=umlActor;verticalLabelPosition=bottom;verticalAlign=top;html=1;outlineConnect=0;" vertex="1" parent="h6NOjBixEb_fyDKGMwi7-15">
          <mxGeometry x="120" y="310" width="30" height="60" as="geometry" />
        </mxCell>
        <mxCell id="h6NOjBixEb_fyDKGMwi7-50" value="Alles" style="ellipse;whiteSpace=wrap;html=1;" vertex="1" parent="h6NOjBixEb_fyDKGMwi7-15">
          <mxGeometry x="170" y="330" width="90" height="50" as="geometry" />
        </mxCell>
      </root>
    </mxGraphModel>
  </diagram>
</mxfile>
